<svg xmlns="http://www.w3.org/2000/svg" viewBox="0 0 200 200" width="200" height="200">
	<style>
		tspan { white-space:pre }
		.shp0 { fill: #f03a62 } 
		.shp1 { fill: #ffffff } 
		.shp2 { fill: #28387d } 
	</style>
	<path id="Shape 1 copy" class="shp0" d="M85.24 1L113.96 1C133.45 1 149.2 16.75 149.2 36.24L149.2 162.85C149.2 182.34 133.45 198.09 113.96 198.09L85.24 198.09C65.75 198.09 50 182.34 50 162.85L50 36.24C50 16.75 65.75 1 85.24 1Z" />
	<path id="Shape 1" class="shp1" d="M87.85 16.52L110.04 16.52C125.2 16.52 137.45 28.76 137.45 43.93L137.45 155.16C137.45 170.33 125.2 182.58 110.04 182.58L87.85 182.58C72.7 182.58 60.44 170.33 60.44 155.16L60.44 43.93C60.44 28.76 72.7 16.52 87.85 16.52Z" />
	<path id="Shape 3" class="shp0" d="M76.11 76.71L123.09 76.71L123.09 138.05L76.11 138.05L76.11 76.71Z" />
	<path id="Shape 2" class="shp2" d="M67.84 61.04C67.84 61.04 96.11 23.58 130.93 61.04C165.74 98.5 130.93 61.04 130.93 61.04L122.66 79.32L76.54 79.32L67.84 61.04Z" />
	<path id="Shape 2 copy" class="shp2" d="M67.84 149.94C67.84 149.94 96.11 179 130.93 149.94C165.74 120.88 130.93 149.94 130.93 149.94L122.66 135.77L76.54 135.77L67.84 149.94Z" />
</svg>