<svg xmlns="http://www.w3.org/2000/svg" viewBox="0 0 200 200" width="200" height="200">
	<style>
		tspan { white-space:pre }
		.shp0 { fill: #f03a62 } 
		.shp1 { fill: #ffffff } 
		.shp2 { fill: #28387d } 
	</style>
	<path id="Shape 1 copy" class="shp0" d="M88 20L110 20C124.93 20 137 32.07 137 47L137 144C137 158.93 124.93 171 110 171L88 171C73.07 171 61 158.93 61 144L61 47C61 32.07 73.07 20 88 20Z" />
	<path id="Shape 1" class="shp1" d="M90 31.89L107 31.89C118.61 31.89 128 41.27 128 52.89L128 138.11C128 149.73 118.61 159.11 107 159.11L90 159.11C78.39 159.11 69 149.73 69 138.11L69 52.89C69 41.27 78.39 31.89 90 31.89Z" />
	<path id="Shape 3" class="shp0" d="M81 78L117 78L117 125L81 125L81 78Z" />
	<path id="Shape 2" class="shp2" d="M74.67 66C74.67 66 96.33 37.3 123 66C149.67 94.7 123 66 123 66L116.67 80L81.33 80L74.67 66Z" />
	<path id="Shape 2 copy" class="shp2" d="M74.67 134.11C74.67 134.11 96.33 156.37 123 134.11C149.67 111.84 123 134.11 123 134.11L116.67 123.25L81.33 123.25L74.67 134.11Z" />
</svg>