<svg xmlns="http://www.w3.org/2000/svg" viewBox="0 0 200 200" width="200" height="200">
	<style>
		tspan { white-space:pre }
		.shp0 { fill: #f03a62 } 
		.shp1 { fill: #ffffff } 
	</style>
	<path id="shape1" class="shp0" d="M100 35.95L100 35.95C135.42 35.95 164.05 64.58 164.05 100L164.05 100C164.05 135.42 135.42 164.05 100 164.05L100 164.05C64.58 164.05 35.95 135.42 35.95 100L35.95 100C35.95 64.58 64.58 35.95 100 35.95Z" />
	<path id="shape2" class="shp1" d="M100 51.95L100 51.95C126.57 51.95 148.05 73.43 148.05 100L148.05 100C148.05 126.57 126.57 148.05 100 148.05L100 148.05C73.43 148.05 51.95 126.57 51.95 100L51.95 100C51.95 73.43 73.43 51.95 100 51.95Z" />
	<path id="shape2 copy" class="shp0" d="M100 68.95L100 68.95C117.17 68.95 131.05 82.83 131.05 100L131.05 100C131.05 117.17 117.17 131.05 100 131.05L100 131.05C82.83 131.05 68.95 117.17 68.95 100L68.95 100C68.95 82.83 82.83 68.95 100 68.95Z" />
</svg>