<svg xmlns="http://www.w3.org/2000/svg" viewBox="0 0 200 200" width="200" height="200">
	<style>
		tspan { white-space:pre }
		.shp0 { fill: #f03a62 } 
		.shp1 { fill: #ffffff } 
	</style>
	<path id="shape1" class="shp0" d="M33.98 -0.55L166.02 -0.55C185.12 -0.55 200.55 14.88 200.55 33.98L200.55 166.02C200.55 185.12 185.12 200.55 166.02 200.55L33.98 200.55C14.88 200.55 -0.55 185.12 -0.55 166.02L-0.55 33.98C-0.55 14.88 14.88 -0.55 33.98 -0.55Z" />
	<path id="shape2" class="shp1" d="M54.39 24.56L145.61 24.56C162.11 24.56 175.44 37.89 175.44 54.39L175.44 145.61C175.44 162.11 162.11 175.44 145.61 175.44L54.39 175.44C37.89 175.44 24.56 162.11 24.56 145.61L24.56 54.39C24.56 37.89 37.89 24.56 54.39 24.56Z" />
	<path id="shape2 copy" class="shp0" d="M68.52 51.25L131.48 51.25C141.04 51.25 148.75 58.96 148.75 68.52L148.75 131.48C148.75 141.04 141.04 148.75 131.48 148.75L68.52 148.75C58.96 148.75 51.25 141.04 51.25 131.48L51.25 68.52C51.25 58.96 58.96 51.25 68.52 51.25Z" />
</svg>