<svg xmlns="http://www.w3.org/2000/svg" viewBox="0 0 200 200" width="200" height="200">
	<style>
		tspan { white-space:pre }
		.shp0 { fill: #f03a62 } 
		.shp1 { fill: #ffffff } 
	</style>
	<path id="shape1" class="shp0" d="M57.95 35.95L142.05 35.95C154.22 35.95 164.05 45.78 164.05 57.95L164.05 142.05C164.05 154.22 154.22 164.05 142.05 164.05L57.95 164.05C45.78 164.05 35.95 154.22 35.95 142.05L35.95 57.95C35.95 45.78 45.78 35.95 57.95 35.95Z" />
	<path id="shape2" class="shp1" d="M70.95 51.95L129.05 51.95C139.56 51.95 148.05 60.44 148.05 70.95L148.05 129.05C148.05 139.56 139.56 148.05 129.05 148.05L70.95 148.05C60.44 148.05 51.95 139.56 51.95 129.05L51.95 70.95C51.95 60.44 60.44 51.95 70.95 51.95Z" />
	<path id="shape2 copy" class="shp0" d="M79.95 68.95L120.05 68.95C126.14 68.95 131.05 73.86 131.05 79.95L131.05 120.05C131.05 126.14 126.14 131.05 120.05 131.05L79.95 131.05C73.86 131.05 68.95 126.14 68.95 120.05L68.95 79.95C68.95 73.86 73.86 68.95 79.95 68.95Z" />
</svg>