<svg xmlns="http://www.w3.org/2000/svg" viewBox="0 0 200 200" width="200" height="200">
	<style>
		tspan { white-space:pre }
		.shp0 { fill: #f03a62 } 
		.shp1 { fill: #ffffff } 
	</style>
	<path id="shape1" class="shp0" d="M100 0L100 0C155.3 0 200 44.7 200 100L200 100C200 155.3 155.3 200 100 200L100 200C44.7 200 0 155.3 0 100L0 100C0 44.7 44.7 0 100 0Z" />
	<path id="shape2" class="shp1" d="M100 24.98L100 24.98C141.48 24.98 175.02 58.52 175.02 100L175.02 100C175.02 141.48 141.48 175.02 100 175.02L100 175.02C58.52 175.02 24.98 141.48 24.98 100L24.98 100C24.98 58.52 58.52 24.98 100 24.98Z" />
	<path id="shape2 copy" class="shp0" d="M100 51.52L100 51.52C126.81 51.52 148.48 73.19 148.48 100L148.48 100C148.48 126.81 126.81 148.48 100 148.48L100 148.48C73.19 148.48 51.52 126.81 51.52 100L51.52 100C51.52 73.19 73.19 51.52 100 51.52Z" />
</svg>