<svg xmlns="http://www.w3.org/2000/svg" viewBox="0 0 200 200" width="200" height="200">
	<style>
		tspan { white-space:pre }
		.shp0 { fill: #00aac3 } 
		.shp1 { fill: #ffffff } 
	</style>
	<path id="shape1" class="shp0" d="M34.35 0L165.65 0C184.65 0 200 15.35 200 34.35L200 165.65C200 184.65 184.65 200 165.65 200L34.35 200C15.35 200 0 184.65 0 165.65L0 34.35C0 15.35 15.35 0 34.35 0Z" />
	<path id="shape2" class="shp1" d="M54.64 24.98L145.36 24.98C161.76 24.98 175.02 38.24 175.02 54.64L175.02 145.36C175.02 161.76 161.76 175.02 145.36 175.02L54.64 175.02C38.24 175.02 24.98 161.76 24.98 145.36L24.98 54.64C24.98 38.24 38.24 24.98 54.64 24.98Z" />
	<path id="shape2 copy" class="shp0" d="M68.7 51.52L131.3 51.52C140.81 51.52 148.48 59.19 148.48 68.7L148.48 131.3C148.48 140.81 140.81 148.48 131.3 148.48L68.7 148.48C59.19 148.48 51.52 140.81 51.52 131.3L51.52 68.7C51.52 59.19 59.19 51.52 68.7 51.52Z" />
</svg>